<?xml version="1.0" encoding="UTF-8" standalone="no"?>
<!-- Generator: Adobe Illustrator 17.0.2, SVG Export Plug-In . SVG Version: 6.00 Build 0)  -->

<svg
   xmlns:dc="http://purl.org/dc/elements/1.1/"
   xmlns:cc="http://creativecommons.org/ns#"
   xmlns:rdf="http://www.w3.org/1999/02/22-rdf-syntax-ns#"
   xmlns:svg="http://www.w3.org/2000/svg"
   xmlns="http://www.w3.org/2000/svg"
   xmlns:sodipodi="http://sodipodi.sourceforge.net/DTD/sodipodi-0.dtd"
   xmlns:inkscape="http://www.inkscape.org/namespaces/inkscape"
   version="1.1"
   id="Layer_1"
   x="0px"
   y="0px"
   width="108.73"
   height="85.070999"
   viewBox="0 0 108.73001 85.071"
   enable-background="new 0 0 385.732 85.071"
   xml:space="preserve"
   inkscape:version="0.48.2 r9819"
   sodipodi:docname="JustCircle.svg"><metadata
   id="metadata81"><rdf:RDF><cc:Work
       rdf:about=""><dc:format>image/svg+xml</dc:format><dc:type
         rdf:resource="http://purl.org/dc/dcmitype/StillImage" /><dc:title></dc:title></cc:Work></rdf:RDF></metadata><defs
   id="defs79" /><sodipodi:namedview
   pagecolor="#ffffff"
   bordercolor="#666666"
   borderopacity="1"
   objecttolerance="10"
   gridtolerance="10"
   guidetolerance="10"
   inkscape:pageopacity="0"
   inkscape:pageshadow="2"
   inkscape:window-width="1440"
   inkscape:window-height="813"
   id="namedview77"
   showgrid="false"
   inkscape:zoom="2.5810831"
   inkscape:cx="221.95896"
   inkscape:cy="11.574867"
   inkscape:window-x="0"
   inkscape:window-y="0"
   inkscape:window-maximized="1"
   inkscape:current-layer="g3" />
<g
   id="g3">
	<path
   clip-rule="evenodd"
   d="m 54.343,29.395 c 7.157,0 12.993,-6.603 12.993,-14.698 C 67.337,6.603 61.5,0 54.343,0 47.186,0 41.35,6.603 41.35,14.698 c 0,8.094 5.837,14.697 12.993,14.697 z"
   id="path5"
   inkscape:connector-curvature="0"
   style="fill:#ffffff;fill-rule:evenodd" />
	<path
   clip-rule="evenodd"
   d="M 54.343,69.469 C 27.735,69.449 6.177,59.174 6.177,46.504 c 0,-1.624 0.355,-3.21 1.029,-4.74 C 2.622,45.561 0,49.962 0,54.656 0,68.962 24.366,80.56 54.424,80.56 c 11.976,0 23.047,-1.841 32.035,-4.961 l 18.715,9.047 -4.395,-16.411 c 5.117,-3.948 8.069,-8.6 8.069,-13.579 0,-4.694 -2.622,-9.095 -7.205,-12.892 0.674,1.53 1.028,3.116 1.028,4.74 0,12.683 -21.601,22.965 -48.247,22.965 -0.027,0 -0.054,0 -0.081,0 z"
   id="path7"
   inkscape:connector-curvature="0"
   style="fill:#ffffff;fill-rule:evenodd" />
	<path
   clip-rule="evenodd"
   d="m 54.343,32.803 0.002,32.93 h 0.08 c 19.613,0 36.441,-5.677 43.628,-13.766 l 0.03,-2.84 C 98.133,44.201 97.337,40.657 95.2,37.498 94.334,36.217 93.246,35 91.906,33.779 c -0.77,0.437 -1.582,0.793 -2.427,1.06 l -0.067,-0.026 c -1.162,0.362 -2.385,0.556 -3.649,0.556 -3.502,0 -6.698,-1.486 -9.121,-3.93 -1.097,0.303 -1.826,0.881 -2.647,2.167 2.351,3.968 3.07,5.78 3.461,10.065 -4.216,-6.435 -6.218,-9.826 -10.931,-14.277 -0.48,-0.454 -0.989,-0.918 -1.532,-1.399 -0.383,0.401 -0.784,0.781 -1.2,1.139 -2.633,2.257 -5.902,3.616 -9.45,3.669 l -0.001,32.93 h -0.08 c -19.613,0 -36.441,-5.677 -43.629,-13.766 l -0.029,-2.84 c -0.051,-4.926 0.745,-8.47 2.883,-11.629 0.866,-1.281 1.954,-2.498 3.294,-3.719 0.77,0.437 1.582,0.793 2.426,1.06 l 0.067,-0.026 c 1.161,0.362 2.386,0.556 3.649,0.556 3.502,0 6.698,-1.486 9.121,-3.93 1.097,0.303 1.826,0.881 2.647,2.167 -2.352,3.968 -3.07,5.78 -3.461,10.065 4.216,-6.435 6.217,-9.826 10.931,-14.277 0.481,-0.454 0.989,-0.918 1.533,-1.399 0.383,0.401 0.783,0.781 1.2,1.139 2.633,2.257 5.902,3.616 9.449,3.669 z"
   id="path9"
   inkscape:connector-curvature="0"
   style="fill:#ffffff;fill-rule:evenodd" />
	<g
   id="g11"
   style="fill:#ffffff">
		<path
   clip-rule="evenodd"
   d="m 85.336,32.324 c 6.072,0 11.023,-5.601 11.023,-12.469 0,-6.868 -4.952,-12.47 -11.023,-12.47 -6.072,0 -11.023,5.602 -11.023,12.47 0,6.868 4.952,12.469 11.023,12.469 z"
   id="path13"
   inkscape:connector-curvature="0"
   style="fill:#ffffff;fill-rule:evenodd" />
		<path
   clip-rule="evenodd"
   d="m 23.351,32.324 c 6.072,0 11.023,-5.601 11.023,-12.469 0,-6.868 -4.952,-12.47 -11.023,-12.47 -6.071,0 -11.024,5.602 -11.024,12.47 0,6.868 4.952,12.469 11.024,12.469 z"
   id="path15"
   inkscape:connector-curvature="0"
   style="fill:#ffffff;fill-rule:evenodd" />
	</g>
	
	
	
	
	
	
	
	
	
	
	
	
	
	
	
	
	
	
	
	
	
	
	
	
	
	
	
	
	
	
</g>
</svg>